<svg width="20" height="20" viewBox="0 0 20 20" fill="none" xmlns="http://www.w3.org/2000/svg">
<g id="icon/01-line/expression">
<path id="&#229;&#189;&#162;&#231;&#138;&#182;&#231;&#187;&#147;&#229;&#144;&#136;" d="M10.0049 1.6665C14.6071 1.66668 18.3378 5.3983 18.3379 10.0005C18.3376 14.6025 14.6069 18.3333 10.0049 18.3335C5.40267 18.3335 1.67214 14.6026 1.67188 10.0005C1.67196 5.39819 5.40256 1.6665 10.0049 1.6665ZM10.0049 3.3335C6.32304 3.3335 3.33798 6.31866 3.33789 10.0005C3.33815 13.6822 6.32315 16.6665 10.0049 16.6665C13.6865 16.6663 16.6716 13.6821 16.6719 10.0005C16.6718 6.31877 13.6866 3.33367 10.0049 3.3335ZM6.60059 10.8979C7.0269 10.7251 7.51245 10.9307 7.68555 11.3569C8.0654 12.2921 8.97625 12.9164 10.0029 12.9165C11.0278 12.9165 11.9371 12.2944 12.3184 11.3618C12.4924 10.9358 12.9792 10.7317 13.4053 10.9058C13.8313 11.0798 14.0354 11.5657 13.8613 11.9917C13.2263 13.546 11.7107 14.5835 10.0029 14.5835C8.29213 14.5833 6.77455 13.5423 6.1416 11.9839C5.96844 11.5575 6.17417 11.0711 6.60059 10.8979ZM7.91895 7.0835C8.37898 7.08367 8.75187 7.45645 8.75195 7.9165V8.75049C8.75169 9.21039 8.37887 9.58332 7.91895 9.5835C7.45871 9.5835 7.08496 9.20975 7.08496 8.74951V7.9165C7.08505 7.45634 7.45876 7.0835 7.91895 7.0835ZM12.085 7.0835C12.5451 7.0835 12.9189 7.45634 12.9189 7.9165V8.75049C12.9187 9.2105 12.545 9.5835 12.085 9.5835C11.6249 9.58332 11.252 9.20964 11.252 8.74951V7.9165C11.252 7.45645 11.6249 7.08367 12.085 7.0835Z" fill="#5F6A7A"/>
</g>
</svg>
